<svg xmlns="http://www.w3.org/2000/svg" xmlns:xlink="http://www.w3.org/1999/xlink" version="1.1" x="0px" y="0px" viewBox="0 0 137.75 171.98000000000002" enable-background="new 0 0 137.75 137.584" xml:space="preserve"><path d="M117.375,27.084h-18.75v-4.001c0-6.627-2.688-12-6-12h-49.5c-3.313,0-6,5.373-6,12v4.001h-18.75c-6.627,0-12,5.373-12,12  v65.501c0,6.627,5.373,12,12,12h99c6.627,0,12-5.373,12-12V39.084C129.375,32.457,124.002,27.084,117.375,27.084z M96.786,66.572  c-0.944,6.196-3.83,9.921-7.137,13.506c-7.289,7.59-16.052,13.066-21.628,18.194c-5.622-4.64-8.42-6.11-12.848-9.96  c-4.172-3.627-8.922-7.413-12.188-11.971c-3.164-4.416-5.733-12.175-3.734-19.215c1.64-5.774,6.161-10.387,13.726-10.871  c9.239-0.096,12.799,6.112,14.932,10.757c2.158-4.554,5.08-10.122,13.95-10.757c5.126-0.05,8.744,2.021,11.09,4.392  C96.642,54.379,97.792,60.013,96.786,66.572z"/></svg>